<svg id="Layer_1" data-name="Layer 1" xmlns="http://www.w3.org/2000/svg" viewBox="0 0 463.63 113.68"><defs><style>.cls-1{fill:#f4bd11;}.cls-2,.cls-3,.cls-4{fill:#1d1d1b;}.cls-2{stroke:#f4bd11;}.cls-2,.cls-4{stroke-miterlimit:10;}.cls-4{stroke:#1d1d1b;stroke-width:3px;}.cls-5{fill:#fff;}</style></defs><path class="cls-1" d="M22.84,0h68a22.84,22.84,0,0,1,22.84,22.84v90.84a0,0,0,0,1,0,0H22.84A22.84,22.84,0,0,1,0,90.84v-68A22.84,22.84,0,0,1,22.84,0Z"/><path class="cls-2" d="M204.48,249.69l3.6,4.54,2.07,2.5q6,7.44,6,15.73a20.82,20.82,0,0,1-5.32,14.13q-7.29,8.32-19.06,8.33-9.12,0-15-5.61A19.13,19.13,0,0,1,171,274.93q0-10.73,9.08-17.89,4.82-3.8,8.88-3.79a4.92,4.92,0,0,1,3.45,1.21,4.06,4.06,0,0,1,1.33,3.13q0,2.58-3,4.46L187.58,264a13.55,13.55,0,0,0-4.5,4.7,11.51,11.51,0,0,0-1.8,5.94,10.21,10.21,0,0,0,3.15,7.69,11,11,0,0,0,8,3,12.63,12.63,0,0,0,9.31-4,13,13,0,0,0,3.95-9.45,12.44,12.44,0,0,0-1.6-6.26,60.53,60.53,0,0,0-6.93-8.72,36.25,36.25,0,0,1-5.32-7.2H181.28q-5.4,0-5.4-3.72a5,5,0,0,1,1.89-4.17,8.63,8.63,0,0,1,5.34-1.46h6.7a18.26,18.26,0,0,1,7.08-12.82,23.32,23.32,0,0,1,15.1-5.06,15.82,15.82,0,0,1,10.78,3.63,11.94,11.94,0,0,1,4.17,9.43,13.14,13.14,0,0,1-6.61,11.82q-3.77,2.35-11.94,2.35Zm-4.7-9.35h9.39q8,0,8-4.62a3.34,3.34,0,0,0-1.63-2.9,7.6,7.6,0,0,0-4.32-1.09,12.42,12.42,0,0,0-7.69,2.62C201.17,236.1,199.94,238.09,199.78,240.34Z" transform="translate(-43.94 -195.68)"/><path class="cls-3" d="M242.47,248.16c2.74-1.48,5-2.23,6.77-2.23a9,9,0,0,1,6.16,2.1,6.73,6.73,0,0,1,2.41,5.34,11.32,11.32,0,0,1-.94,4.26l-4.11,10.25h4.5q4.94,0,4.93,3.49a4.39,4.39,0,0,1-1.74,3.71,7.83,7.83,0,0,1-4.87,1.33h-7.87a6.26,6.26,0,0,1-4.2-1.43,4.37,4.37,0,0,1-1.7-3.5,10,10,0,0,1,.9-3.6l3.6-8.84a7.77,7.77,0,0,0,.66-2.54c0-1.49-1-2.23-3-2.23q-4,0-6.73,6.8l-4.38,10.76c-1.39,3.42-3.43,5.13-6.15,5.13a4,4,0,0,1-2.74-1,3.19,3.19,0,0,1-1.13-2.46,7,7,0,0,1,.59-2.58l.43-1.06,17-42c1.48-3.59,3.52-5.39,6.1-5.39a3.89,3.89,0,0,1,2.76,1.07,3.43,3.43,0,0,1,1.15,2.6,11,11,0,0,1-1,3.72Z" transform="translate(-43.94 -195.68)"/><path class="cls-3" d="M281.79,245.93a12.76,12.76,0,0,1,9.34,3.6,12.3,12.3,0,0,1,3.66,9.16,19.53,19.53,0,0,1-1.92,8.31,18.26,18.26,0,0,1-5,6.6,12.14,12.14,0,0,1-4.21,2.21,23.89,23.89,0,0,1-6.08.6q-6.37,0-8.61-1.52-5.25-3.6-5.24-10.65a17.71,17.71,0,0,1,5.36-12.87A17.22,17.22,0,0,1,281.79,245.93Zm-.93,8.34a6.89,6.89,0,0,0-5.29,2.85,9.62,9.62,0,0,0-2.38,6.3q0,4.54,5.08,4.54a5.73,5.73,0,0,0,4.58-1.84,10.12,10.12,0,0,0,2.66-6.88,5,5,0,0,0-1.29-3.6A4.38,4.38,0,0,0,280.86,254.27Z" transform="translate(-43.94 -195.68)"/><path class="cls-3" d="M306.64,255.05l-1.33,3.29q-1.8,4.38-4.69,4.38a4.2,4.2,0,0,1-2.94-1.06,3.39,3.39,0,0,1-1.17-2.62,9.61,9.61,0,0,1,.86-3.05l4.42-10.92q1.6-3.94,4.54-3.95a3.29,3.29,0,0,1,3.56,2.74l.31,1.21a1.69,1.69,0,0,0,.71,1.18,6.86,6.86,0,0,0,2.3.23h9.16q5.13,0,5.13,3.6,0,5-6.5,5l-.43.39q-6.22,6-6.22,9.2t3.6,3.24h4.93q5,0,5,3.45a4.44,4.44,0,0,1-1.74,3.75,7.85,7.85,0,0,1-4.87,1.33h-7.67a8.31,8.31,0,0,1-6.4-2.7,9.91,9.91,0,0,1-2.48-7,11.43,11.43,0,0,1,1.33-5.32,32.44,32.44,0,0,1,4.69-6.34Z" transform="translate(-43.94 -195.68)"/><path class="cls-3" d="M349.13,246.48h1.22q5,0,5,3.48a4.39,4.39,0,0,1-1.77,3.72A7.85,7.85,0,0,1,348.7,255h-2.85l-5.25,12.87H345q5,0,5,3.49a4.4,4.4,0,0,1-1.75,3.71,7.83,7.83,0,0,1-4.87,1.33h-7a7.4,7.4,0,0,1-4.72-1.37,4.47,4.47,0,0,1-1.74-3.71,8.71,8.71,0,0,1,.71-3.21l.74-1.72L336,255h-.59q-4.38,0-4.38-3.4a4.51,4.51,0,0,1,1.74-3.78,7.77,7.77,0,0,1,4.87-1.35h1.8l2.07-5.13.43-1q1.85-4.35,5.8-4.35a3.89,3.89,0,0,1,2.75,1.08,3.44,3.44,0,0,1,1.16,2.6,9.66,9.66,0,0,1-1,3.76Z" transform="translate(-43.94 -195.68)"/><path class="cls-3" d="M363.06,265q0,2.93,4.43,2.93h11.62c3.28,0,4.93,1.16,4.93,3.49a4.37,4.37,0,0,1-1.75,3.71,7.83,7.83,0,0,1-4.87,1.33H366.35q-6.18,0-9.41-3.05t-3.23-8.92a18.44,18.44,0,0,1,5.11-13A16.05,16.05,0,0,1,371,245.93a12.2,12.2,0,0,1,8.23,2.68,8.85,8.85,0,0,1,3.11,7.06,8.46,8.46,0,0,1-4.3,7.83c-1.59,1-4,1.45-7.12,1.45Zm1.88-7.12h4.31c2.79,0,4.14-.62,4.07-1.84-.08-1.38-1-2.08-2.7-2.08Q367,253.91,364.94,257.83Z" transform="translate(-43.94 -195.68)"/><path class="cls-3" d="M395.3,255.05,394,258.34q-1.8,4.38-4.69,4.38a4.23,4.23,0,0,1-2.94-1.06,3.39,3.39,0,0,1-1.17-2.62A9.89,9.89,0,0,1,386,256l4.42-10.92c1.07-2.63,2.59-3.95,4.54-3.95a3.29,3.29,0,0,1,3.56,2.74l.32,1.21a1.69,1.69,0,0,0,.7,1.18,6.89,6.89,0,0,0,2.31.23H411q5.13,0,5.13,3.6c0,3.31-2.17,5-6.49,5l-.44.39q-6.21,6-6.22,9.2t3.6,3.24h4.93c3.32,0,5,1.15,5,3.45a4.44,4.44,0,0,1-1.74,3.75,7.83,7.83,0,0,1-4.87,1.33h-7.67a8.31,8.31,0,0,1-6.4-2.7,10,10,0,0,1-2.48-7,11.43,11.43,0,0,1,1.33-5.32,32.86,32.86,0,0,1,4.69-6.34Z" transform="translate(-43.94 -195.68)"/><path class="cls-3" d="M465.3,267.88H470q4.94,0,4.93,3.49a4.39,4.39,0,0,1-1.74,3.71,7.77,7.77,0,0,1-4.83,1.33h-7.95a6.17,6.17,0,0,1-4.18-1.37,4.5,4.5,0,0,1-1.61-3.6,12.05,12.05,0,0,1,1.06-4.14l3.68-9a4,4,0,0,0,.31-1.45,2.27,2.27,0,0,0-2.58-2.55,5.86,5.86,0,0,0-3.95,1.8,12.63,12.63,0,0,0-3.13,4.78l-4.39,10.8q-2.15,5.23-6.26,5.24a3.86,3.86,0,0,1-2.74-1.06,3.31,3.31,0,0,1-1.13-2.5,7.62,7.62,0,0,1,.59-2.66l.43-1.06,4.42-10.91a6.68,6.68,0,0,0,.59-2.27,1.92,1.92,0,0,0-.79-1.51,2.8,2.8,0,0,0-1.84-.65q-4.22,0-6.69,6.11l-4.58,11.23q-2.15,5.28-6.22,5.28a4,4,0,0,1-2.75-1,3.26,3.26,0,0,1-1.16-2.52,7.4,7.4,0,0,1,.59-2.66l.43-1.06,7.78-19.17q1.65-4,4.93-4a3.94,3.94,0,0,1,4.23,3.21,19.68,19.68,0,0,1,4.32-3,10,10,0,0,1,4.09-.75,8.52,8.52,0,0,1,7.87,4.58,13.37,13.37,0,0,1,9.86-4.58,9.33,9.33,0,0,1,6.28,2.17,6.79,6.79,0,0,1,2.52,5.34,10.94,10.94,0,0,1-.86,4.11Z" transform="translate(-43.94 -195.68)"/><path class="cls-3" d="M485.77,265q0,2.93,4.42,2.93h11.62q4.94,0,4.93,3.49a4.39,4.39,0,0,1-1.74,3.71,7.85,7.85,0,0,1-4.87,1.33H489.05q-6.18,0-9.41-3.05t-3.22-8.92a18.48,18.48,0,0,1,5.1-13,16.08,16.08,0,0,1,12.15-5.48,12.23,12.23,0,0,1,8.24,2.68,8.88,8.88,0,0,1,3.11,7.06,8.46,8.46,0,0,1-4.31,7.83q-2.38,1.46-7.12,1.45Zm1.88-7.12H492c2.79,0,4.15-.62,4.07-1.84-.08-1.38-1-2.08-2.7-2.08Q489.72,253.91,487.65,257.83Z" transform="translate(-43.94 -195.68)"/><line class="cls-4" x1="372.99" y1="89.12" x2="463.63" y2="89.12"/><path class="cls-5" d="M98.32,229.4a14.09,14.09,0,0,1-10.54,4.19c.71,1.19,1.31,2.23,1.93,3.26q16.23,26.94,32.45,53.89a5.2,5.2,0,0,0,4.07,2.9,4.8,4.8,0,0,0,2.32-.33c1.65-.73,1.8-1.33,1-2.92L98.92,230.47C98.75,230.14,98.56,229.82,98.32,229.4ZM112.24,258l-6.3,1.76a3.22,3.22,0,0,1,2.42-3.87A3.14,3.14,0,0,1,112.24,258Zm.17.88a3.07,3.07,0,0,1-2.43,3.5,3,3,0,0,1-3.73-1.84Z" transform="translate(-43.94 -195.68)"/><path class="cls-5" d="M58.64,270.54a12.73,12.73,0,1,0-4.56-17.43A12.72,12.72,0,0,0,58.64,270.54Zm-.37-14.9a7.88,7.88,0,1,1,2.88,10.76A7.91,7.91,0,0,1,58.27,255.64Z" transform="translate(-43.94 -195.68)"/><path class="cls-5" d="M95,209.28a12.73,12.73,0,1,0,4.46,17.46A12.71,12.71,0,0,0,95,209.28Zm-2.26,3.91A8.21,8.21,0,1,1,81.44,216,8.26,8.26,0,0,1,92.75,213.19Z" transform="translate(-43.94 -195.68)"/><path class="cls-5" d="M111.63,254.31c1.45,2.84,2.78,5.47,4.17,8.08a1.3,1.3,0,0,0,1,.45c10.29-.27,20.59-.57,30.88-.83A1.18,1.18,0,0,0,149,260.9c.61-2.71-1.51-5.25-4.67-5.39-4.84-.21-9.68-.36-14.52-.53Z" transform="translate(-43.94 -195.68)"/><path class="cls-5" d="M105,263.17c-1.84-3.05-3.55-5.9-5.3-8.72a1.4,1.4,0,0,0-1-.58c-7.21-.3-14.43-.56-21.88-.84a13.93,13.93,0,0,1,.92,11Z" transform="translate(-43.94 -195.68)"/></svg>