<svg id="Layer_1" data-name="Layer 1" xmlns="http://www.w3.org/2000/svg" viewBox="0 0 113.68 113.68"><defs><style>.cls-1{fill:#f4bd11;}.cls-2{fill:#fff;}</style></defs><path class="cls-1" d="M22.84,0h68a22.84,22.84,0,0,1,22.84,22.84v90.84a0,0,0,0,1,0,0H22.84A22.84,22.84,0,0,1,0,90.84v-68A22.84,22.84,0,0,1,22.84,0Z"/><path class="cls-2" d="M295.24,399.78A14.08,14.08,0,0,1,284.7,404c.71,1.2,1.31,2.24,1.93,3.27q16.23,26.94,32.45,53.89a5.23,5.23,0,0,0,4.07,2.9,5,5,0,0,0,2.32-.33c1.65-.74,1.8-1.33,1-2.92l-30.62-59.93C295.67,400.51,295.48,400.2,295.24,399.78Zm13.92,28.61-6.3,1.77a3.23,3.23,0,0,1,2.42-3.88A3.16,3.16,0,0,1,309.16,428.39Zm.17.89a3.07,3.07,0,0,1-2.43,3.5,3,3,0,0,1-3.73-1.85Z" transform="translate(-240.8 -364.1)"/><path class="cls-2" d="M255.56,440.92A12.73,12.73,0,1,0,251,423.48,12.73,12.73,0,0,0,255.56,440.92Zm-.37-14.9a7.88,7.88,0,1,1,2.88,10.76A7.9,7.9,0,0,1,255.19,426Z" transform="translate(-240.8 -364.1)"/><path class="cls-2" d="M291.93,379.66a12.73,12.73,0,1,0,4.46,17.45A12.71,12.71,0,0,0,291.93,379.66Zm-2.26,3.91a8.21,8.21,0,1,1-11.31,2.8A8.25,8.25,0,0,1,289.67,383.57Z" transform="translate(-240.8 -364.1)"/><path class="cls-2" d="M308.55,424.69c1.45,2.83,2.78,5.47,4.17,8.07a1.3,1.3,0,0,0,1,.45c10.29-.26,20.59-.56,30.88-.82a1.18,1.18,0,0,0,1.31-1.12c.61-2.71-1.51-5.24-4.67-5.38-4.84-.21-9.68-.36-14.52-.54Z" transform="translate(-240.8 -364.1)"/><path class="cls-2" d="M301.88,433.55c-1.84-3.05-3.55-5.9-5.3-8.72a1.41,1.41,0,0,0-1-.59c-7.21-.3-14.43-.55-21.88-.83a13.93,13.93,0,0,1,.92,11Z" transform="translate(-240.8 -364.1)"/></svg>