<svg id="Layer_1" data-name="Layer 1" xmlns="http://www.w3.org/2000/svg" viewBox="0 0 337.04 73.46"><defs><style>.cls-1,.cls-2,.cls-3{fill:#1d1d1b;}.cls-1{stroke:#f4bd11;}.cls-1,.cls-3{stroke-miterlimit:10;}.cls-3{stroke:#1d1d1b;stroke-width:3px;}</style></defs><path class="cls-1" d="M162.82,412l3.6,4.53,2.07,2.51q6,7.42,6,15.73a20.78,20.78,0,0,1-5.32,14.12q-7.27,8.34-19.06,8.34-9.12,0-14.94-5.62a19.06,19.06,0,0,1-5.83-14.38q0-10.71,9.07-17.88,4.81-3.8,8.89-3.79a4.92,4.92,0,0,1,3.44,1.21,4,4,0,0,1,1.33,3.13q0,2.58-3,4.46l-3.13,1.92a13.61,13.61,0,0,0-4.5,4.69,11.55,11.55,0,0,0-1.8,5.95,10.22,10.22,0,0,0,3.15,7.69,11.06,11.06,0,0,0,8,3,12.66,12.66,0,0,0,9.31-4,13,13,0,0,0,3.95-9.45,12.44,12.44,0,0,0-1.6-6.26,59.91,59.91,0,0,0-6.93-8.73,35.94,35.94,0,0,1-5.32-7.19H139.62q-5.4,0-5.4-3.72a5,5,0,0,1,1.9-4.17,8.52,8.52,0,0,1,5.34-1.47h6.69a18.26,18.26,0,0,1,7.08-12.81,23.33,23.33,0,0,1,15.1-5.07,15.82,15.82,0,0,1,10.78,3.64,11.94,11.94,0,0,1,4.17,9.43,13.12,13.12,0,0,1-6.61,11.82q-3.76,2.34-11.94,2.35Zm-4.7-9.36h9.4q7.93,0,7.94-4.61a3.34,3.34,0,0,0-1.63-2.9,7.6,7.6,0,0,0-4.32-1.09,12.42,12.42,0,0,0-7.69,2.62Q158.35,399.24,158.12,402.59Z" transform="translate(-128.87 -384.21)"/><path class="cls-2" d="M200.81,410.42a15.13,15.13,0,0,1,6.77-2.23,9.05,9.05,0,0,1,6.16,2.09,6.76,6.76,0,0,1,2.41,5.34,11.33,11.33,0,0,1-.94,4.27l-4.11,10.25h4.5q4.93,0,4.93,3.48a4.42,4.42,0,0,1-1.74,3.72,7.83,7.83,0,0,1-4.87,1.33h-7.86a6.33,6.33,0,0,1-4.21-1.43,4.41,4.41,0,0,1-1.7-3.5,10,10,0,0,1,.9-3.6l3.6-8.84a7.76,7.76,0,0,0,.66-2.55c0-1.48-1-2.23-3-2.23q-4,0-6.73,6.81l-4.38,10.76c-1.39,3.42-3.43,5.13-6.15,5.13a3.92,3.92,0,0,1-2.73-1,3.19,3.19,0,0,1-1.14-2.46,7.29,7.29,0,0,1,.59-2.59l.43-1,17-42q2.24-5.4,6.1-5.4a3.9,3.9,0,0,1,2.76,1.08,3.42,3.42,0,0,1,1.15,2.6,11.09,11.09,0,0,1-1,3.72Z" transform="translate(-128.87 -384.21)"/><path class="cls-2" d="M240.14,408.19a12.75,12.75,0,0,1,9.33,3.6,12.29,12.29,0,0,1,3.66,9.15,19.54,19.54,0,0,1-1.92,8.32,18,18,0,0,1-5,6.59,12,12,0,0,1-4.21,2.21,23.37,23.37,0,0,1-6.08.61q-6.37,0-8.61-1.53-5.24-3.6-5.24-10.64a17.73,17.73,0,0,1,5.36-12.87A17.19,17.19,0,0,1,240.14,408.19Zm-.94,8.33a6.87,6.87,0,0,0-5.28,2.86,9.54,9.54,0,0,0-2.39,6.3c0,3,1.69,4.54,5.09,4.54a5.72,5.72,0,0,0,4.57-1.84,10.08,10.08,0,0,0,2.66-6.89,5.06,5.06,0,0,0-1.29-3.6A4.42,4.42,0,0,0,239.2,416.52Z" transform="translate(-128.87 -384.21)"/><path class="cls-2" d="M265,417.31l-1.33,3.28c-1.2,2.92-2.76,4.39-4.69,4.39a4.26,4.26,0,0,1-2.94-1.06,3.4,3.4,0,0,1-1.17-2.62,9.89,9.89,0,0,1,.86-3.05l4.42-10.92c1.07-2.64,2.58-3.95,4.54-3.95a3.29,3.29,0,0,1,3.56,2.74l.31,1.21a1.7,1.7,0,0,0,.71,1.17,6.53,6.53,0,0,0,2.31.24h9.15q5.13,0,5.13,3.6,0,5-6.5,5l-.43.39q-6.21,5.94-6.22,9.19t3.6,3.25h4.93q5,0,5,3.44a4.46,4.46,0,0,1-1.74,3.76,7.85,7.85,0,0,1-4.87,1.33h-7.67a8.31,8.31,0,0,1-6.4-2.7,9.91,9.91,0,0,1-2.48-7,11.49,11.49,0,0,1,1.33-5.33,32.43,32.43,0,0,1,4.69-6.33Z" transform="translate(-128.87 -384.21)"/><path class="cls-2" d="M307.48,408.74h1.21q5,0,5,3.48a4.41,4.41,0,0,1-1.76,3.72,8,8,0,0,1-4.86,1.33h-2.85L299,430.14h4.38q5,0,5,3.48a4.42,4.42,0,0,1-1.74,3.72,7.89,7.89,0,0,1-4.88,1.33h-7A7.43,7.43,0,0,1,290,437.3a4.46,4.46,0,0,1-1.75-3.72,8.79,8.79,0,0,1,.71-3.21l.74-1.72,4.62-11.38h-.59q-4.38,0-4.38-3.41a4.5,4.5,0,0,1,1.74-3.77,7.79,7.79,0,0,1,4.87-1.35h1.8l2.08-5.13.43-1.05q1.83-4.35,5.79-4.35a3.9,3.9,0,0,1,2.76,1.08,3.42,3.42,0,0,1,1.15,2.6,9.7,9.7,0,0,1-1,3.76Z" transform="translate(-128.87 -384.21)"/><path class="cls-2" d="M321.41,427.21q0,2.93,4.42,2.93h11.62c3.28,0,4.93,1.16,4.93,3.48a4.42,4.42,0,0,1-1.74,3.72,7.85,7.85,0,0,1-4.87,1.33H324.69q-6.18,0-9.41-3.05t-3.23-8.92a18.47,18.47,0,0,1,5.11-13,16.05,16.05,0,0,1,12.15-5.48,12.18,12.18,0,0,1,8.24,2.68,8.88,8.88,0,0,1,3.11,7.06,8.48,8.48,0,0,1-4.31,7.83c-1.59,1-4,1.45-7.12,1.45Zm1.87-7.13h4.31q4.19,0,4.07-1.83c-.08-1.39-1-2.08-2.7-2.08C326.56,416.17,324.67,417.48,323.28,420.08Z" transform="translate(-128.87 -384.21)"/><path class="cls-2" d="M353.65,417.31l-1.33,3.28c-1.2,2.92-2.77,4.39-4.7,4.39a4.24,4.24,0,0,1-2.93-1.06,3.38,3.38,0,0,1-1.18-2.62,9.89,9.89,0,0,1,.86-3.05l4.42-10.92c1.07-2.64,2.59-3.95,4.54-3.95a3.29,3.29,0,0,1,3.56,2.74l.32,1.21a1.66,1.66,0,0,0,.7,1.17,6.53,6.53,0,0,0,2.31.24h9.16q5.12,0,5.12,3.6,0,5-6.49,5l-.43.39q-6.22,5.94-6.23,9.19t3.6,3.25h4.93c3.32,0,5,1.15,5,3.44a4.46,4.46,0,0,1-1.74,3.76,7.83,7.83,0,0,1-4.87,1.33h-7.67a8.31,8.31,0,0,1-6.4-2.7,10,10,0,0,1-2.48-7,11.49,11.49,0,0,1,1.33-5.33,32.55,32.55,0,0,1,4.7-6.33Z" transform="translate(-128.87 -384.21)"/><path class="cls-2" d="M423.65,430.14h4.65q4.93,0,4.93,3.48a4.42,4.42,0,0,1-1.74,3.72,7.77,7.77,0,0,1-4.83,1.33h-7.94a6.23,6.23,0,0,1-4.19-1.37,4.5,4.5,0,0,1-1.61-3.6,12.1,12.1,0,0,1,1.06-4.15l3.68-9a3.87,3.87,0,0,0,.31-1.45,2.26,2.26,0,0,0-2.58-2.54,5.86,5.86,0,0,0-3.95,1.8,12.56,12.56,0,0,0-3.13,4.78L403.93,434q-2.16,5.25-6.27,5.25a3.84,3.84,0,0,1-2.73-1.06,3.3,3.3,0,0,1-1.14-2.5,7.58,7.58,0,0,1,.59-2.66l.43-1.06L399.23,421a6.57,6.57,0,0,0,.59-2.27,1.91,1.91,0,0,0-.78-1.5,2.83,2.83,0,0,0-1.84-.65q-4.23,0-6.7,6.11l-4.57,11.23q-2.16,5.28-6.22,5.28a4,4,0,0,1-2.76-1,3.26,3.26,0,0,1-1.16-2.52,7.35,7.35,0,0,1,.59-2.66l.43-1.06,7.79-19.17c1.09-2.69,2.74-4,4.93-4a3.93,3.93,0,0,1,4.22,3.21,20.05,20.05,0,0,1,4.33-3,10.05,10.05,0,0,1,4.08-.74,8.52,8.52,0,0,1,7.87,4.58,13.37,13.37,0,0,1,9.86-4.58,9.28,9.28,0,0,1,6.28,2.17,6.79,6.79,0,0,1,2.52,5.34,10.75,10.75,0,0,1-.86,4.11Z" transform="translate(-128.87 -384.21)"/><path class="cls-2" d="M444.11,427.21q0,2.93,4.42,2.93h11.62q4.94,0,4.93,3.48a4.42,4.42,0,0,1-1.74,3.72,7.83,7.83,0,0,1-4.87,1.33H447.4q-6.19,0-9.41-3.05t-3.23-8.92a18.46,18.46,0,0,1,5.1-13A16.08,16.08,0,0,1,452,408.19a12.16,12.16,0,0,1,8.24,2.68,8.88,8.88,0,0,1,3.11,7.06,8.48,8.48,0,0,1-4.3,7.83c-1.6,1-4,1.45-7.12,1.45Zm1.88-7.13h4.3q4.18,0,4.07-1.83c-.08-1.39-1-2.08-2.7-2.08C449.26,416.17,447.37,417.48,446,420.08Z" transform="translate(-128.87 -384.21)"/><line class="cls-3" x1="246.41" y1="62.85" x2="337.04" y2="62.85"/></svg>